<svg xmlns="http://www.w3.org/2000/svg" width="16.013" height="20.919" viewBox="0 0 16.013 20.919"><defs><style>.a{fill:#f24556;}</style></defs><path class="a" d="M12.007,6.069V7.887a.5.5,0,0,0,.851.356L15.65,5.408a.508.508,0,0,0,0-.721L12.857,1.852a.5.5,0,0,0-.851.366V4.037A8.134,8.134,0,0,0,4.57,15.162a1,1,0,0,0,1.872-.711A5.994,5.994,0,0,1,6,12.165,6.056,6.056,0,0,1,12.007,6.069ZM17.8,8.822a.991.991,0,0,0-.23,1.057,6.231,6.231,0,0,1,.44,2.286,6.056,6.056,0,0,1-6,6.1V16.442a.5.5,0,0,0-.851-.356L8.364,18.921a.508.508,0,0,0,0,.721l2.792,2.835a.5.5,0,0,0,.851-.356V20.293A8.134,8.134,0,0,0,19.443,9.167,1,1,0,0,0,17.8,8.822Z" transform="translate(-4 -1.705)"/></svg>