<svg xmlns="http://www.w3.org/2000/svg" width="18.462" height="16" viewBox="0 0 18.462 16"><defs><style>.a{fill:#00aee0;}</style></defs><path class="a" d="M6.154,0A1.231,1.231,0,0,0,4.923,1.231H1.231a1.231,1.231,0,0,0,0,2.462H4.923a1.231,1.231,0,1,0,2.462,0V1.231A1.231,1.231,0,0,0,6.154,0Zm0,0"/><path class="a" d="M260.923,116.431h-2.462a1.231,1.231,0,1,0-2.461,0v2.462a1.231,1.231,0,1,0,2.461,0h2.462a1.231,1.231,0,1,0,0-2.462Zm0,0" transform="translate(-243.692 -109.662)"/><path class="a" d="M175.631,25.6h-8a1.231,1.231,0,1,0,0,2.462h8a1.231,1.231,0,1,0,0-2.462Zm0,0" transform="translate(-158.4 -24.369)"/><path class="a" d="M10.462,140.8H1.231a1.231,1.231,0,0,0,0,2.462h9.231a1.231,1.231,0,0,0,0-2.462Zm0,0" transform="translate(0 -134.031)"/><path class="a" d="M236.554,256h-4.923a1.231,1.231,0,1,0,0,2.462h4.923a1.231,1.231,0,0,0,0-2.462Zm0,0" transform="translate(-219.323 -243.692)"/><path class="a" d="M9.231,230.4A1.231,1.231,0,0,0,8,231.631H1.231a1.231,1.231,0,0,0,0,2.462H8a1.231,1.231,0,0,0,2.462,0v-2.462A1.231,1.231,0,0,0,9.231,230.4Zm0,0" transform="translate(0 -219.323)"/></svg>