<svg xmlns="http://www.w3.org/2000/svg" width="26.899" height="29.506" viewBox="0 0 26.899 29.506"><defs><style>.a{fill:#d0d0d0;}</style></defs><g transform="translate(-0.001 0)"><g transform="translate(7.12 18.664)"><path class="a" d="M97.358,53.272a1.082,1.082,0,1,0-.932-.932,1.082,1.082,0,0,0,.932.932Z" transform="translate(-85.61 -51.117)"/><path class="a" d="M68.958,53.272a1.082,1.082,0,1,0-.932-.932,1.082,1.082,0,0,0,.932.932Z" transform="translate(-68.016 -51.117)"/></g><path class="a" d="M298.024,202.04l.024-.019-1.558-1.833a.169.169,0,0,1-.038-.081.154.154,0,0,1,.211-.126h0l1.268.493-.019-.067h.019a20.032,20.032,0,0,0-1.321-3.543,2.14,2.14,0,0,1-.118-.281,2.924,2.924,0,0,1-.093-1h0a.274.274,0,0,1,.011-.094,5.342,5.342,0,0,1,.173-.919,5.479,5.479,0,0,1,.217-.577,9.412,9.412,0,0,0,.82-4.245,9.3,9.3,0,0,0-2.608-6.131,8.981,8.981,0,0,0-2.138-1.628,1.046,1.046,0,0,0-.952,0,8.9,8.9,0,0,0-2.135,1.622,9.275,9.275,0,0,0-1.963,3.051,3.405,3.405,0,0,1-3.223,2.112h-.014a3.405,3.405,0,0,1-3.223-2.112,9.281,9.281,0,0,0-1.963-3.052,8.9,8.9,0,0,0-2.135-1.622,1.048,1.048,0,0,0-.952,0,8.984,8.984,0,0,0-2.138,1.628,9.3,9.3,0,0,0-2.608,6.131,9.416,9.416,0,0,0,.824,4.245,5.462,5.462,0,0,1,.217.577,5.354,5.354,0,0,1,.173.919.92.92,0,0,0,.011.094h0a2.932,2.932,0,0,1-.094,1,2.158,2.158,0,0,1-.117.282,20.032,20.032,0,0,0-1.321,3.543h.019l-.019.067,1.268-.493h0a.154.154,0,0,1,.211.126.168.168,0,0,1-.038.081l-1.556,1.833.023.019-.023.024h.009l-.009.011.65.49c.2.149.453.346.74.579l.509.5c1.574,1.526,8.595,7.735,11.555,7.735s9.97-6.21,11.544-7.735l.509-.5c.291-.232.544-.429.74-.579l.65-.49-.009-.011h.009Zm-20.17-16.993.1.112a4.46,4.46,0,0,1-1.076,6.867l-1.369.768-.159.1-.052.032c-.038.026-.076.046-.111.071s-.038.026-.056.04l-.1.071a.568.568,0,0,0-.056.04l-.1.075-.052.043-.1.079a.469.469,0,0,0-.049.04l-.1.086a.5.5,0,0,0-.046.04c-.035.032-.067.061-.1.092h0a7.382,7.382,0,0,1,1.2-8.555,7.1,7.1,0,0,1,1.11-.932,7.079,7.079,0,0,1,1.1.935Zm6.75,24.5c-1.593-.074-3.2-.864-9.314-6.1a3.185,3.185,0,0,1-1.1-2.421V198.27a.673.673,0,0,1,.656-.685h2.522a6.138,6.138,0,0,1,6.151,6.124v.147a1.592,1.592,0,0,1-.013.243v.044c-.009.079-.022.159-.038.237a1.95,1.95,0,0,1-.411.856,1.057,1.057,0,0,0-.251.582v.076a.226.226,0,0,0,.041.175v.009a.547.547,0,0,0,.036.048l.013.016.048.049.018.018c.026.022.052.046.084.071.446.348,1.536,1.137,1.556,1.113,0,0,1.119-.763,1.564-1.113.032-.026.061-.049.084-.071l.017-.018.048-.049.013-.016a.562.562,0,0,0,.036-.048v-.009a.226.226,0,0,0,.041-.175v-.076a1.057,1.057,0,0,0-.25-.582,1.955,1.955,0,0,1-.411-.856c-.017-.078-.029-.159-.038-.237V204.1a2.429,2.429,0,0,1-.013-.243V203.7a6.138,6.138,0,0,1,6.151-6.124h2.521a.673.673,0,0,1,.655.685v2.758a3.185,3.185,0,0,1-1.1,2.421c-6.113,5.235-7.489,6.026-9.31,6.1Zm8.97-24.5a7.382,7.382,0,0,1,1.2,8.555h0c-.032-.032-.067-.061-.1-.092a.54.54,0,0,0-.046-.04l-.1-.086a.475.475,0,0,0-.049-.04l-.1-.079-.052-.043-.1-.075a.548.548,0,0,0-.056-.04l-.1-.071c-.017-.014-.038-.026-.055-.04s-.073-.046-.111-.071l-.052-.032-.167-.1-1.369-.768a4.46,4.46,0,0,1-1.076-6.867l.1-.111a7.09,7.09,0,0,1,1.11-.93,7.11,7.11,0,0,1,1.11.93Z" transform="translate(-271.148 -181.869)"/></g></svg>