<svg xmlns="http://www.w3.org/2000/svg" width="399.139" height="50.599" viewBox="0 0 399.139 50.599"><defs><style>.a{fill:#d3d3d3;stroke:#fff;stroke-width:0.4px;}</style></defs><g transform="translate(-1.3 -27.601)"><g transform="translate(1 25.309)"><path class="a" d="M1.37,102.895A1.257,1.257,0,0,0,0,104V109.5a1.257,1.257,0,0,0,1.37,1.1,1.257,1.257,0,0,0,1.369-1.1V104A1.257,1.257,0,0,0,1.37,102.895Zm0,0" transform="translate(0.5 -79.59)"/><path class="a" d="M1.37,102.895c-.757,0-1.37.4-1.37.891v4.457c0,.493.613.892,1.37.892s1.369-.4,1.369-.892v-4.457C2.74,103.293,2.127,102.895,1.37,102.895Zm0,0" transform="translate(122.5 -78.034)"/><path class="a" d="M1.37,102.895A1.357,1.357,0,0,0,0,104.24v6.727a1.358,1.358,0,0,0,1.37,1.346,1.357,1.357,0,0,0,1.369-1.346V104.24A1.357,1.357,0,0,0,1.37,102.895Zm0,0" transform="translate(39.5 -79.483)"/><path class="a" d="M1.37,102.895A1.357,1.357,0,0,0,0,104.24v6.727a1.358,1.358,0,0,0,1.37,1.346,1.357,1.357,0,0,0,1.369-1.346V104.24A1.357,1.357,0,0,0,1.37,102.895Zm0,0" transform="translate(117.5 -79.483)"/><path class="a" d="M35.526,74.941c-.756,0-1.37.289-1.37.645v8.93c0,.356.614.645,1.37.645s1.37-.289,1.37-.645v-8.93C36.9,75.23,36.283,74.941,35.526,74.941Zm0,0" transform="translate(-28.656 -53.32)"/><path class="a" d="M69.636,27.8c-.756,0-1.37.252-1.37.563V44.142c0,.311.614.564,1.37.564s1.37-.252,1.37-.564V28.364C71.006,28.053,70.392,27.8,69.636,27.8Zm0,0" transform="translate(-56.766 -8.615)"/><path class="a" d="M69.636,27.8c-.756,0-1.37.406-1.37.906V54.088c0,.5.614.907,1.37.907s1.37-.406,1.37-.907V28.707C71.006,28.206,70.392,27.8,69.636,27.8Zm0,0" transform="translate(-45.765 -13.966)"/><path class="a" d="M69.636,27.8a1.331,1.331,0,0,0-1.37,1.287V65.126a1.373,1.373,0,0,0,2.74,0V29.087A1.331,1.331,0,0,0,69.636,27.8Zm0,0" transform="translate(-40.765 -19.228)"/><path class="a" d="M103.769,61.934c-.756,0-1.37.245-1.37.548V71.8c0,.3.614.548,1.37.548s1.37-.246,1.37-.548V62.482C105.139,62.179,104.525,61.934,103.769,61.934Zm0,0" transform="translate(-85.899 -39.586)"/><path class="a" d="M274.437,55.105a1.371,1.371,0,0,0-1.37,1.37v27.4a1.37,1.37,0,1,0,2.74,0v-27.4A1.37,1.37,0,0,0,274.437,55.105Zm0,0" transform="translate(-222.567 -39.033)"/><path class="a" d="M274.437,55.105a1.548,1.548,0,0,0-1.37,1.677V90.32a1.4,1.4,0,1,0,2.74,0V56.783A1.547,1.547,0,0,0,274.437,55.105Zm0,0" transform="translate(-178.567 -45.788)"/><path class="a" d="M274.437,55.105a1.34,1.34,0,0,0-1.37,1.306V82.534a1.371,1.371,0,0,0,2.74,0V56.412A1.339,1.339,0,0,0,274.437,55.105Zm0,0" transform="translate(-206.566 -41.196)"/><path class="a" d="M308.569,89.238a1.62,1.62,0,0,0-1.37,1.785v17.848a1.418,1.418,0,1,0,2.74,0V91.023A1.619,1.619,0,0,0,308.569,89.238Zm0,0" transform="translate(-228.699 -71.858)"/><path class="a" d="M308.569,89.238a1.62,1.62,0,0,0-1.37,1.785v17.848a1.418,1.418,0,1,0,2.74,0V91.023A1.619,1.619,0,0,0,308.569,89.238Zm0,0" transform="translate(-234.699 -71.858)"/><path class="a" d="M308.569,89.238a1.62,1.62,0,0,0-1.37,1.785v17.848a1.418,1.418,0,1,0,2.74,0V91.023A1.619,1.619,0,0,0,308.569,89.238Zm0,0" transform="translate(-206.7 -71.858)"/><path class="a" d="M308.569,89.238a1.626,1.626,0,0,0-1.37,1.794v17.94a1.42,1.42,0,1,0,2.74,0V91.033A1.626,1.626,0,0,0,308.569,89.238Zm0,0" transform="translate(-262.699 -72.775)"/><path class="a" d="M240.3.492a1.346,1.346,0,0,0-1.37,1.321V49.37a1.371,1.371,0,0,0,2.74,0V1.813A1.346,1.346,0,0,0,240.3.492Zm0,0" transform="translate(-183.434 2)"/><path class="a" d="M240.3.492a1.346,1.346,0,0,0-1.37,1.321V49.37a1.371,1.371,0,0,0,2.74,0V1.813A1.346,1.346,0,0,0,240.3.492Zm0,0" transform="translate(-177.434 2)"/><path class="a" d="M342.7,107.434a1.37,1.37,0,0,0-1.37,1.369v5.928a1.37,1.37,0,1,0,2.74,0V108.8A1.37,1.37,0,0,0,342.7,107.434Zm0,0" transform="translate(-257.832 -84.171)"/><path class="a" d="M342.7,107.434a1.37,1.37,0,0,0-1.37,1.369v5.928a1.37,1.37,0,1,0,2.74,0V108.8A1.37,1.37,0,0,0,342.7,107.434Zm0,0" transform="translate(-235.832 -84.171)"/><path class="a" d="M171.394,94.418a1.425,1.425,0,0,0-1.37,1.475V107.9a1.374,1.374,0,1,0,2.74,0V95.893A1.425,1.425,0,0,0,171.394,94.418Zm0,0" transform="translate(-136.523 -74.207)"/><path class="a" d="M171.394,94.418a1.425,1.425,0,0,0-1.37,1.475V107.9a1.374,1.374,0,1,0,2.74,0V95.893A1.425,1.425,0,0,0,171.394,94.418Zm0,0" transform="translate(-58.522 -74.207)"/><path class="a" d="M171.394,94.418a1.425,1.425,0,0,0-1.37,1.475V107.9a1.374,1.374,0,1,0,2.74,0V95.893A1.425,1.425,0,0,0,171.394,94.418Zm0,0" transform="translate(-80.523 -74.207)"/><path class="a" d="M1.37,102.895A1.357,1.357,0,0,0,0,104.24v6.727a1.358,1.358,0,0,0,1.37,1.346,1.357,1.357,0,0,0,1.369-1.346V104.24A1.357,1.357,0,0,0,1.37,102.895Zm0,0" transform="translate(195.499 -79.483)"/><path class="a" d="M274.437,55.105a1.371,1.371,0,0,0-1.37,1.37v27.4a1.37,1.37,0,1,0,2.74,0v-27.4A1.37,1.37,0,0,0,274.437,55.105Zm0,0" transform="translate(-144.567 -39.034)"/><path class="a" d="M274.437,55.105a1.548,1.548,0,0,0-1.37,1.677V90.32a1.4,1.4,0,1,0,2.74,0V56.783A1.547,1.547,0,0,0,274.437,55.105Zm0,0" transform="translate(-100.566 -45.788)"/><path class="a" d="M274.437,55.105a1.34,1.34,0,0,0-1.37,1.306V82.534a1.371,1.371,0,0,0,2.74,0V56.412A1.339,1.339,0,0,0,274.437,55.105Zm0,0" transform="translate(-127.566 -41.197)"/><path class="a" d="M308.569,89.238a1.62,1.62,0,0,0-1.37,1.785v17.848a1.418,1.418,0,1,0,2.74,0V91.023A1.619,1.619,0,0,0,308.569,89.238Zm0,0" transform="translate(-156.7 -71.858)"/><path class="a" d="M308.569,89.238a1.62,1.62,0,0,0-1.37,1.785v17.848a1.418,1.418,0,1,0,2.74,0V91.023A1.619,1.619,0,0,0,308.569,89.238Zm0,0" transform="translate(-150.7 -71.858)"/><path class="a" d="M308.569,89.238a1.62,1.62,0,0,0-1.37,1.785v17.848a1.418,1.418,0,1,0,2.74,0V91.023A1.619,1.619,0,0,0,308.569,89.238Zm0,0" transform="translate(-128.699 -71.858)"/><path class="a" d="M240.3.492a1.346,1.346,0,0,0-1.37,1.321V49.37a1.371,1.371,0,0,0,2.74,0V1.813A1.346,1.346,0,0,0,240.3.492Zm0,0" transform="translate(-105.434 2)"/><path class="a" d="M240.3.492a1.346,1.346,0,0,0-1.37,1.321V49.37a1.371,1.371,0,0,0,2.74,0V1.813A1.346,1.346,0,0,0,240.3.492Zm0,0" transform="translate(-99.434 2)"/><path class="a" d="M342.7,107.434a1.37,1.37,0,0,0-1.37,1.369v5.928a1.37,1.37,0,1,0,2.74,0V108.8A1.37,1.37,0,0,0,342.7,107.434Zm0,0" transform="translate(-179.831 -84.171)"/><path class="a" d="M342.7,107.434a1.37,1.37,0,0,0-1.37,1.369v5.928a1.37,1.37,0,1,0,2.74,0V108.8A1.37,1.37,0,0,0,342.7,107.434Zm0,0" transform="translate(-156.832 -84.171)"/><path class="a" d="M171.394,94.418a1.425,1.425,0,0,0-1.37,1.475V107.9a1.374,1.374,0,1,0,2.74,0V95.893A1.425,1.425,0,0,0,171.394,94.418Zm0,0" transform="translate(19.477 -74.207)"/><path class="a" d="M171.394,94.418a1.425,1.425,0,0,0-1.37,1.475V107.9a1.374,1.374,0,1,0,2.74,0V95.893A1.425,1.425,0,0,0,171.394,94.418Zm0,0" transform="translate(-2.523 -74.207)"/></g><g transform="translate(202 25.309)"><path class="a" d="M1.37,102.895A1.257,1.257,0,0,0,0,104V109.5a1.257,1.257,0,0,0,1.37,1.1,1.257,1.257,0,0,0,1.369-1.1V104A1.257,1.257,0,0,0,1.37,102.895Zm0,0" transform="translate(0.5 -79.59)"/><path class="a" d="M1.37,102.895c-.757,0-1.37.4-1.37.891v4.457c0,.493.613.892,1.37.892s1.369-.4,1.369-.892v-4.457C2.74,103.293,2.127,102.895,1.37,102.895Zm0,0" transform="translate(122.5 -78.034)"/><path class="a" d="M1.37,102.895A1.357,1.357,0,0,0,0,104.24v6.727a1.358,1.358,0,0,0,1.37,1.346,1.357,1.357,0,0,0,1.369-1.346V104.24A1.357,1.357,0,0,0,1.37,102.895Zm0,0" transform="translate(39.5 -79.483)"/><path class="a" d="M1.37,102.895A1.357,1.357,0,0,0,0,104.24v6.727a1.358,1.358,0,0,0,1.37,1.346,1.357,1.357,0,0,0,1.369-1.346V104.24A1.357,1.357,0,0,0,1.37,102.895Zm0,0" transform="translate(117.5 -79.483)"/><path class="a" d="M35.526,74.941c-.756,0-1.37.289-1.37.645v8.93c0,.356.614.645,1.37.645s1.37-.289,1.37-.645v-8.93C36.9,75.23,36.283,74.941,35.526,74.941Zm0,0" transform="translate(-28.656 -53.32)"/><path class="a" d="M69.636,27.8c-.756,0-1.37.252-1.37.563V44.142c0,.311.614.564,1.37.564s1.37-.252,1.37-.564V28.364C71.006,28.053,70.392,27.8,69.636,27.8Zm0,0" transform="translate(-56.766 -8.615)"/><path class="a" d="M69.636,27.8c-.756,0-1.37.406-1.37.906V54.088c0,.5.614.907,1.37.907s1.37-.406,1.37-.907V28.707C71.006,28.206,70.392,27.8,69.636,27.8Zm0,0" transform="translate(-45.765 -13.966)"/><path class="a" d="M69.636,27.8a1.331,1.331,0,0,0-1.37,1.287V65.126a1.373,1.373,0,0,0,2.74,0V29.087A1.331,1.331,0,0,0,69.636,27.8Zm0,0" transform="translate(-40.765 -19.228)"/><path class="a" d="M103.769,61.934c-.756,0-1.37.245-1.37.548V71.8c0,.3.614.548,1.37.548s1.37-.246,1.37-.548V62.482C105.139,62.179,104.525,61.934,103.769,61.934Zm0,0" transform="translate(-85.899 -39.586)"/><path class="a" d="M274.437,55.105a1.371,1.371,0,0,0-1.37,1.37v27.4a1.37,1.37,0,1,0,2.74,0v-27.4A1.37,1.37,0,0,0,274.437,55.105Zm0,0" transform="translate(-222.567 -39.033)"/><path class="a" d="M274.437,55.105a1.548,1.548,0,0,0-1.37,1.677V90.32a1.4,1.4,0,1,0,2.74,0V56.783A1.547,1.547,0,0,0,274.437,55.105Zm0,0" transform="translate(-178.567 -45.788)"/><path class="a" d="M274.437,55.105a1.34,1.34,0,0,0-1.37,1.306V82.534a1.371,1.371,0,0,0,2.74,0V56.412A1.339,1.339,0,0,0,274.437,55.105Zm0,0" transform="translate(-206.566 -41.196)"/><path class="a" d="M308.569,89.238a1.62,1.62,0,0,0-1.37,1.785v17.848a1.418,1.418,0,1,0,2.74,0V91.023A1.619,1.619,0,0,0,308.569,89.238Zm0,0" transform="translate(-228.699 -71.858)"/><path class="a" d="M308.569,89.238a1.62,1.62,0,0,0-1.37,1.785v17.848a1.418,1.418,0,1,0,2.74,0V91.023A1.619,1.619,0,0,0,308.569,89.238Zm0,0" transform="translate(-234.699 -71.858)"/><path class="a" d="M308.569,89.238a1.62,1.62,0,0,0-1.37,1.785v17.848a1.418,1.418,0,1,0,2.74,0V91.023A1.619,1.619,0,0,0,308.569,89.238Zm0,0" transform="translate(-206.7 -71.858)"/><path class="a" d="M308.569,89.238a1.626,1.626,0,0,0-1.37,1.794v17.94a1.42,1.42,0,1,0,2.74,0V91.033A1.626,1.626,0,0,0,308.569,89.238Zm0,0" transform="translate(-262.699 -72.775)"/><path class="a" d="M240.3.492a1.346,1.346,0,0,0-1.37,1.321V49.37a1.371,1.371,0,0,0,2.74,0V1.813A1.346,1.346,0,0,0,240.3.492Zm0,0" transform="translate(-183.434 2)"/><path class="a" d="M240.3.492a1.346,1.346,0,0,0-1.37,1.321V49.37a1.371,1.371,0,0,0,2.74,0V1.813A1.346,1.346,0,0,0,240.3.492Zm0,0" transform="translate(-177.434 2)"/><path class="a" d="M342.7,107.434a1.37,1.37,0,0,0-1.37,1.369v5.928a1.37,1.37,0,1,0,2.74,0V108.8A1.37,1.37,0,0,0,342.7,107.434Zm0,0" transform="translate(-257.832 -84.171)"/><path class="a" d="M342.7,107.434a1.37,1.37,0,0,0-1.37,1.369v5.928a1.37,1.37,0,1,0,2.74,0V108.8A1.37,1.37,0,0,0,342.7,107.434Zm0,0" transform="translate(-235.832 -84.171)"/><path class="a" d="M171.394,94.418a1.425,1.425,0,0,0-1.37,1.475V107.9a1.374,1.374,0,1,0,2.74,0V95.893A1.425,1.425,0,0,0,171.394,94.418Zm0,0" transform="translate(-136.523 -74.207)"/><path class="a" d="M171.394,94.418a1.425,1.425,0,0,0-1.37,1.475V107.9a1.374,1.374,0,1,0,2.74,0V95.893A1.425,1.425,0,0,0,171.394,94.418Zm0,0" transform="translate(-58.522 -74.207)"/><path class="a" d="M171.394,94.418a1.425,1.425,0,0,0-1.37,1.475V107.9a1.374,1.374,0,1,0,2.74,0V95.893A1.425,1.425,0,0,0,171.394,94.418Zm0,0" transform="translate(-80.523 -74.207)"/><path class="a" d="M1.37,102.895A1.357,1.357,0,0,0,0,104.24v6.727a1.358,1.358,0,0,0,1.37,1.346,1.357,1.357,0,0,0,1.369-1.346V104.24A1.357,1.357,0,0,0,1.37,102.895Zm0,0" transform="translate(195.499 -79.483)"/><path class="a" d="M274.437,55.105a1.371,1.371,0,0,0-1.37,1.37v27.4a1.37,1.37,0,1,0,2.74,0v-27.4A1.37,1.37,0,0,0,274.437,55.105Zm0,0" transform="translate(-144.567 -39.034)"/><path class="a" d="M274.437,55.105a1.548,1.548,0,0,0-1.37,1.677V90.32a1.4,1.4,0,1,0,2.74,0V56.783A1.547,1.547,0,0,0,274.437,55.105Zm0,0" transform="translate(-100.566 -45.788)"/><path class="a" d="M274.437,55.105a1.34,1.34,0,0,0-1.37,1.306V82.534a1.371,1.371,0,0,0,2.74,0V56.412A1.339,1.339,0,0,0,274.437,55.105Zm0,0" transform="translate(-127.566 -41.197)"/><path class="a" d="M308.569,89.238a1.62,1.62,0,0,0-1.37,1.785v17.848a1.418,1.418,0,1,0,2.74,0V91.023A1.619,1.619,0,0,0,308.569,89.238Zm0,0" transform="translate(-156.7 -71.858)"/><path class="a" d="M308.569,89.238a1.62,1.62,0,0,0-1.37,1.785v17.848a1.418,1.418,0,1,0,2.74,0V91.023A1.619,1.619,0,0,0,308.569,89.238Zm0,0" transform="translate(-150.7 -71.858)"/><path class="a" d="M308.569,89.238a1.62,1.62,0,0,0-1.37,1.785v17.848a1.418,1.418,0,1,0,2.74,0V91.023A1.619,1.619,0,0,0,308.569,89.238Zm0,0" transform="translate(-128.699 -71.858)"/><path class="a" d="M240.3.492a1.346,1.346,0,0,0-1.37,1.321V49.37a1.371,1.371,0,0,0,2.74,0V1.813A1.346,1.346,0,0,0,240.3.492Zm0,0" transform="translate(-105.434 2)"/><path class="a" d="M240.3.492a1.346,1.346,0,0,0-1.37,1.321V49.37a1.371,1.371,0,0,0,2.74,0V1.813A1.346,1.346,0,0,0,240.3.492Zm0,0" transform="translate(-99.434 2)"/><path class="a" d="M342.7,107.434a1.37,1.37,0,0,0-1.37,1.369v5.928a1.37,1.37,0,1,0,2.74,0V108.8A1.37,1.37,0,0,0,342.7,107.434Zm0,0" transform="translate(-179.831 -84.171)"/><path class="a" d="M342.7,107.434a1.37,1.37,0,0,0-1.37,1.369v5.928a1.37,1.37,0,1,0,2.74,0V108.8A1.37,1.37,0,0,0,342.7,107.434Zm0,0" transform="translate(-156.832 -84.171)"/><path class="a" d="M171.394,94.418a1.425,1.425,0,0,0-1.37,1.475V107.9a1.374,1.374,0,1,0,2.74,0V95.893A1.425,1.425,0,0,0,171.394,94.418Zm0,0" transform="translate(19.477 -74.207)"/><path class="a" d="M171.394,94.418a1.425,1.425,0,0,0-1.37,1.475V107.9a1.374,1.374,0,1,0,2.74,0V95.893A1.425,1.425,0,0,0,171.394,94.418Zm0,0" transform="translate(-2.523 -74.207)"/></g></g></svg>